<?xml version="1.0" encoding="UTF-8" standalone="no"?>
<svg
   width="24"
   height="24"
   viewBox="0 0 24 24"
   version="1.1"
   id="svg2879"
   sodipodi:docname="iconmonstr-facebook-6.svg"
   inkscape:version="1.2.1 (9c6d41e410, 2022-07-14)"
   xmlns:inkscape="http://www.inkscape.org/namespaces/inkscape"
   xmlns:sodipodi="http://sodipodi.sourceforge.net/DTD/sodipodi-0.dtd"
   xmlns="http://www.w3.org/2000/svg"
   xmlns:svg="http://www.w3.org/2000/svg">
  <defs
     id="defs2883" />
  <sodipodi:namedview
     id="namedview2881"
     pagecolor="#ffffff"
     bordercolor="#000000"
     borderopacity="0.25"
     inkscape:showpageshadow="2"
     inkscape:pageopacity="0.0"
     inkscape:pagecheckerboard="0"
     inkscape:deskcolor="#d1d1d1"
     showgrid="false"
     inkscape:zoom="32.333333"
     inkscape:cx="12"
     inkscape:cy="11.92268"
     inkscape:window-width="1920"
     inkscape:window-height="974"
     inkscape:window-x="-11"
     inkscape:window-y="-11"
     inkscape:window-maximized="1"
     inkscape:current-layer="svg2879" />
  <path
     d="M22.675 0h-21.35c-.732 0-1.325.593-1.325 1.325v21.351c0 .731.593 1.324 1.325 1.324h11.495v-9.294h-3.128v-3.622h3.128v-2.671c0-3.1 1.893-4.788 4.659-4.788 1.325 0 2.463.099 2.795.143v3.24l-1.918.001c-1.504 0-1.795.715-1.795 1.763v2.313h3.587l-.467 3.622h-3.12v9.293h6.116c.73 0 1.323-.593 1.323-1.325v-21.35c0-.732-.593-1.325-1.325-1.325z"
     id="path2877" />
  <path
     style="fill:#bf9300;stroke-width:0.0309278"
     d="M 0.98969072,23.934954 C 0.48537588,23.800024 0.09748642,23.348586 0.02891148,22.816768 -0.00676964,22.540052 -0.00618386,1.4554608 0.02951264,1.178384 0.09892038,0.63964005 0.48420421,0.19879731 1.0039206,0.06346394 1.1688156,0.02052554 2.3283559,0.01546392 12,0.01546392 c 9.671644,0 10.831185,0.0050616 10.996079,0.04800002 0.519213,0.13520223 0.89539,0.56537286 0.972245,1.11179376 0.04236,0.3011449 0.04166,21.3550913 -7.14e-4,21.6494843 -0.0586,0.407083 -0.290451,0.767232 -0.621361,0.965186 -0.336374,0.201223 -0.212257,0.194608 -3.651716,0.194608 H 16.57732 v -4.639175 -4.639175 h 1.561855 c 0.859021,0 1.561856,-0.0081 1.561856,-0.01808 0,-0.0099 0.104381,-0.824783 0.231959,-1.810749 0.127577,-0.985966 0.231958,-1.798963 0.231958,-1.806659 0,-0.0077 -0.807216,-0.01399 -1.793814,-0.01399 H 16.57732 L 16.578399,9.75 c 0.0012,-1.4432728 0.01929,-1.6437863 0.179162,-1.9854331 0.114051,-0.2437225 0.302895,-0.4322217 0.549144,-0.5481411 0.339168,-0.1596606 0.548455,-0.1803433 1.824882,-0.1803433 H 20.28866 V 5.3996258 3.7631691 l -0.11598,-0.018475 c -0.467348,-0.074448 -2.335625,-0.1559255 -2.929559,-0.1277616 -2.102915,0.099718 -3.556948,1.1075492 -4.145313,2.8732333 -0.252065,0.75645 -0.293625,1.1937219 -0.293658,3.0897315 l -2.6e-5,1.4768037 H 11.242268 9.6804124 v 1.824742 1.824743 h 1.5618556 1.561856 v 4.639175 4.639175 l -5.8221652,-0.002 c -5.023007,-0.0018 -5.8455136,-0.0083 -5.99226808,-0.04755 z"
     id="path2885" />
</svg>
