<?xml version="1.0" encoding="UTF-8" standalone="no"?>
<svg
   width="24"
   height="24"
   viewBox="0 0 24 24"
   version="1.1"
   id="svg2930"
   sodipodi:docname="iconmonstr-twitter-3.svg"
   inkscape:version="1.2.1 (9c6d41e410, 2022-07-14)"
   xmlns:inkscape="http://www.inkscape.org/namespaces/inkscape"
   xmlns:sodipodi="http://sodipodi.sourceforge.net/DTD/sodipodi-0.dtd"
   xmlns="http://www.w3.org/2000/svg"
   xmlns:svg="http://www.w3.org/2000/svg">
  <defs
     id="defs2934" />
  <sodipodi:namedview
     id="namedview2932"
     pagecolor="#ffffff"
     bordercolor="#000000"
     borderopacity="0.25"
     inkscape:showpageshadow="2"
     inkscape:pageopacity="0.0"
     inkscape:pagecheckerboard="0"
     inkscape:deskcolor="#d1d1d1"
     showgrid="false"
     inkscape:zoom="32.333333"
     inkscape:cx="12"
     inkscape:cy="11.92268"
     inkscape:window-width="1920"
     inkscape:window-height="974"
     inkscape:window-x="-11"
     inkscape:window-y="-11"
     inkscape:window-maximized="1"
     inkscape:current-layer="svg2930" />
  <path
     d="M19 0h-14c-2.761 0-5 2.239-5 5v14c0 2.761 2.239 5 5 5h14c2.762 0 5-2.239 5-5v-14c0-2.761-2.238-5-5-5zm-.139 9.237c.209 4.617-3.234 9.765-9.33 9.765-1.854 0-3.579-.543-5.032-1.475 1.742.205 3.48-.278 4.86-1.359-1.437-.027-2.649-.976-3.066-2.28.515.098 1.021.069 1.482-.056-1.579-.317-2.668-1.739-2.633-3.26.442.246.949.394 1.486.411-1.461-.977-1.875-2.907-1.016-4.383 1.619 1.986 4.038 3.293 6.766 3.43-.479-2.053 1.08-4.03 3.199-4.03.943 0 1.797.398 2.395 1.037.748-.147 1.451-.42 2.086-.796-.246.767-.766 1.41-1.443 1.816.664-.08 1.297-.256 1.885-.517-.439.656-.996 1.234-1.639 1.697z"
     id="path2928" />
  <path
     style="fill:#bf9300;stroke-width:0.0309278"
     d="M 4.5773196,23.965185 C 4.5347938,23.959174 4.381701,23.938382 4.2371134,23.91898 2.4766634,23.682747 0.85823975,22.318258 0.27552674,20.578975 0.14035973,20.175529 0.06505899,19.774411 0.03108532,19.276864 -0.00751466,18.711565 -0.00909723,5.3258521 0.02936569,4.7319588 0.06084775,4.2458545 0.13948026,3.827096 0.27552674,3.4210246 0.78497029,1.9004372 2.078414,0.65792218 3.610813,0.21706322 c 0.6824697,-0.196341 0.034776,-0.1810422 8.188156,-0.1934079 7.554212,-0.01145697 7.690422,-0.0097547 8.235945,0.10292617 1.672645,0.34549421 3.139591,1.65289901 3.68662,3.28567141 0.138065,0.4120939 0.213193,0.8102047 0.247381,1.3108831 0.04047,0.5926664 0.04047,13.961062 0,14.553728 -0.03397,0.497547 -0.109275,0.898665 -0.244442,1.302111 -0.409256,1.221549 -1.34291,2.294784 -2.492514,2.865147 -0.589427,0.292437 -1.069103,0.435629 -1.702284,0.508163 -0.255337,0.02925 -14.7482045,0.04175 -14.9523554,0.0129 z m 5.9072164,-4.992613 c 1.706918,-0.155355 3.33888,-0.772285 4.650251,-1.757934 2.283851,-1.71658 3.709675,-4.553974 3.740937,-7.4444749 l 0.0057,-0.528806 0.184972,-0.1361425 C 19.325365,8.9146082 19.824151,8.4311663 20.088709,8.1143502 20.3443,7.8082729 20.517978,7.564389 20.496005,7.5424154 c -0.0083,-0.0083 -0.09663,0.018702 -0.196281,0.060008 -0.379991,0.1575053 -1.051119,0.3452675 -1.464063,0.4096021 l -0.138548,0.021585 0.256054,-0.1929424 c 0.250822,-0.1889996 0.52214,-0.4747459 0.708158,-0.7458151 0.158049,-0.2303134 0.435432,-0.8176649 0.401959,-0.8511384 -0.0052,-0.00524 -0.199197,0.085461 -0.43102,0.2015518 C 19.21175,6.6558485 18.526096,6.9047251 18.16509,6.9778171 L 17.974548,7.0163994 17.816475,6.864908 C 16.556871,5.6577489 14.430626,5.710753 13.21939,6.9795062 c -0.509478,0.5336715 -0.820451,1.1695942 -0.912422,1.8658546 -0.03484,0.2637334 -0.02324,0.8109198 0.02253,1.0635916 l 0.01899,0.1048286 -0.290226,-0.02211 c -0.159619,-0.012161 -0.49191,-0.056004 -0.73842,-0.09743 C 9.7311971,9.6272675 8.2966785,8.9849106 7.0206186,7.9691091 6.7184759,7.7285901 5.9521481,6.983842 5.7292825,6.7141373 L 5.6038107,6.5622956 5.5119541,6.7450652 C 5.2738766,7.218776 5.1649485,7.6887606 5.1649485,8.242268 c 0,1.0396021 0.44325,1.969516 1.2371134,2.595395 l 0.170103,0.134109 -0.2010309,-0.02299 C 6.07683,10.915129 5.7457355,10.824228 5.4615949,10.699072 5.3239549,10.638445 5.191792,10.580455 5.1678996,10.570205 c -0.036272,-0.01556 -0.040595,0.03198 -0.026195,0.288053 0.059454,1.057344 0.6827097,2.056696 1.6264073,2.607845 0.2378858,0.138933 0.6172077,0.296634 0.7926805,0.329553 0.1579441,0.02963 0.093387,0.0615 -0.2101009,0.103707 -0.3026867,0.0421 -0.5972251,0.0425 -0.8519718,0.0012 -0.1084364,-0.0176 -0.2031501,-0.026 -0.2104751,-0.01867 -0.00733,0.0073 0.028906,0.122728 0.080514,0.256451 0.114887,0.29769 0.3933582,0.733869 0.6344812,0.993809 0.5080463,0.547694 1.2657222,0.934252 2.006957,1.023926 0.1331851,0.01611 0.2490955,0.03624 0.2575784,0.04472 0.00848,0.0085 -0.1352802,0.115295 -0.3194743,0.237359 -0.72066,0.477578 -1.6119285,0.841335 -2.4769874,1.010943 -0.3905824,0.07658 -0.4880292,0.08346 -1.2058513,0.08516 -0.4295115,10e-4 -0.780929,0.0041 -0.7809278,0.0067 1.6e-6,0.0027 0.1426571,0.08801 0.3170128,0.189605 1.2249891,0.71378 2.3575157,1.074851 3.935567,1.254734 0.2235786,0.02549 1.4235568,0.01674 1.7474228,-0.01274 z"
     id="path2936" />
</svg>
