<?xml version="1.0" encoding="UTF-8" standalone="no"?>
<svg
   width="24"
   height="24"
   viewBox="0 0 24 24"
   version="1.1"
   id="svg2894"
   sodipodi:docname="iconmonstr-instagram-13.svg"
   inkscape:version="1.2.1 (9c6d41e410, 2022-07-14)"
   xmlns:inkscape="http://www.inkscape.org/namespaces/inkscape"
   xmlns:sodipodi="http://sodipodi.sourceforge.net/DTD/sodipodi-0.dtd"
   xmlns="http://www.w3.org/2000/svg"
   xmlns:svg="http://www.w3.org/2000/svg">
  <defs
     id="defs2898" />
  <sodipodi:namedview
     id="namedview2896"
     pagecolor="#ffffff"
     bordercolor="#000000"
     borderopacity="0.25"
     inkscape:showpageshadow="2"
     inkscape:pageopacity="0.0"
     inkscape:pagecheckerboard="0"
     inkscape:deskcolor="#d1d1d1"
     showgrid="false"
     inkscape:zoom="32.333333"
     inkscape:cx="12"
     inkscape:cy="11.92268"
     inkscape:window-width="1920"
     inkscape:window-height="974"
     inkscape:window-x="-11"
     inkscape:window-y="-11"
     inkscape:window-maximized="1"
     inkscape:current-layer="svg2894" />
  <path
     d="M15.233 5.488c-.843-.038-1.097-.046-3.233-.046s-2.389.008-3.232.046c-2.17.099-3.181 1.127-3.279 3.279-.039.844-.048 1.097-.048 3.233s.009 2.389.047 3.233c.099 2.148 1.106 3.18 3.279 3.279.843.038 1.097.047 3.233.047 2.137 0 2.39-.008 3.233-.046 2.17-.099 3.18-1.129 3.279-3.279.038-.844.046-1.097.046-3.233s-.008-2.389-.046-3.232c-.099-2.153-1.111-3.182-3.279-3.281zm-3.233 10.62c-2.269 0-4.108-1.839-4.108-4.108 0-2.269 1.84-4.108 4.108-4.108s4.108 1.839 4.108 4.108c0 2.269-1.839 4.108-4.108 4.108zm4.271-7.418c-.53 0-.96-.43-.96-.96s.43-.96.96-.96.96.43.96.96-.43.96-.96.96zm-1.604 3.31c0 1.473-1.194 2.667-2.667 2.667s-2.667-1.194-2.667-2.667c0-1.473 1.194-2.667 2.667-2.667s2.667 1.194 2.667 2.667zm4.333-12h-14c-2.761 0-5 2.239-5 5v14c0 2.761 2.239 5 5 5h14c2.762 0 5-2.239 5-5v-14c0-2.761-2.238-5-5-5zm.952 15.298c-.132 2.909-1.751 4.521-4.653 4.654-.854.039-1.126.048-3.299.048s-2.444-.009-3.298-.048c-2.908-.133-4.52-1.748-4.654-4.654-.039-.853-.048-1.125-.048-3.298 0-2.172.009-2.445.048-3.298.134-2.908 1.748-4.521 4.654-4.653.854-.04 1.125-.049 3.298-.049s2.445.009 3.299.048c2.908.133 4.523 1.751 4.653 4.653.039.854.048 1.127.048 3.299 0 2.173-.009 2.445-.048 3.298z"
     id="path2892" />
  <path
     style="fill:#bf9300;stroke-width:0.0309278"
     d="M 4.5773196,23.965185 C 4.5347938,23.959174 4.381701,23.938382 4.2371134,23.91898 2.4766634,23.682747 0.85823975,22.318258 0.27552674,20.578975 0.14035973,20.175529 0.06505899,19.774411 0.03108532,19.276864 -0.00751466,18.711565 -0.00909723,5.3258521 0.02936569,4.7319588 0.06084775,4.2458545 0.13948026,3.827096 0.27552674,3.4210246 0.78497029,1.9004372 2.078414,0.65792218 3.610813,0.21706322 c 0.6824697,-0.196341 0.034776,-0.1810422 8.188156,-0.1934079 7.554212,-0.01145697 7.690422,-0.0097547 8.235945,0.10292617 1.672645,0.34549421 3.139591,1.65289901 3.68662,3.28567141 0.138065,0.4120939 0.213193,0.8102047 0.247381,1.3108831 0.04047,0.5926664 0.04047,13.961062 0,14.553728 -0.03397,0.497547 -0.109275,0.898665 -0.244442,1.302111 -0.409256,1.221549 -1.34291,2.294784 -2.492514,2.865147 -0.589427,0.292437 -1.069103,0.435629 -1.702284,0.508163 -0.255337,0.02925 -14.7482045,0.04175 -14.9523554,0.0129 z M 14.28866,19.995126 c 1.558061,-0.039 1.996483,-0.09196 2.733176,-0.330113 1.740496,-0.562665 2.711191,-1.913726 2.929472,-4.077384 0.0207,-0.205229 0.04048,-1.403507 0.04984,-3.020224 0.01594,-2.7532381 -0.0096,-3.9335668 -0.09893,-4.563906 C 19.588462,5.7884638 18.296951,4.46295 16.113132,4.1146478 15.626099,4.0369698 14.889926,4.0067122 12.989691,3.9862707 11.13574,3.9663272 8.7792832,4.0071371 8.2268041,4.0687559 6.9997398,4.2056128 6.0241011,4.6273754 5.3350515,5.3188432 4.5782162,6.0783346 4.1826204,7.0433208 4.0448793,8.465991 c -0.056611,0.5847118 -0.056611,6.483306 0,7.068018 0.1076839,1.112225 0.3766101,1.943408 0.8520229,2.633389 0.1953476,0.283515 0.580388,0.678565 0.871139,0.893786 0.6065097,0.448953 1.5095722,0.76563 2.4896908,0.873059 0.7112056,0.07795 4.016246,0.111319 6.030928,0.06088 z"
     id="path2900" />
  <path
     style="fill:#bf9300;stroke-width:0.0309278"
     d="M 9,18.507834 C 8.1414377,18.469865 7.6081008,18.364708 7.1182416,18.136815 6.2077519,17.713234 5.7196833,16.968144 5.549703,15.742268 5.4706325,15.172021 5.427554,12.226643 5.4697944,10.278724 5.4932867,9.1953758 5.5226383,8.4534751 5.5497502,8.257732 5.7387154,6.8934387 6.3380558,6.1003356 7.4662777,5.721604 8.1142134,5.5040992 8.8844063,5.4595876 12,5.4595876 c 2.435417,0 3.399502,0.029766 3.933066,0.1214321 1.523803,0.2617894 2.299972,1.0913336 2.518318,2.6914944 0.118397,0.8676849 0.118412,6.5876819 1.8e-5,7.4549719 -0.164728,1.206721 -0.624394,1.937907 -1.493876,2.376297 -0.494158,0.249153 -1.052155,0.359981 -2.043071,0.405791 C 14.146137,18.545093 9.8136792,18.543819 9,18.507833 Z m 3.831828,-2.471095 c 0.902259,-0.183868 1.732139,-0.674348 2.306803,-1.363377 0.424986,-0.509563 0.686624,-1.016832 0.860425,-1.668207 0.09161,-0.343344 0.0949,-0.378179 0.0949,-1.005155 0,-0.626976 -0.0033,-0.661811 -0.0949,-1.005155 C 15.681657,9.8052878 14.947641,8.8794779 13.895964,8.3422251 13.240131,8.007191 12.75455,7.8918421 12,7.8918421 c -0.75455,0 -1.240131,0.1153489 -1.895964,0.450383 C 9.4352149,8.6838943 8.9063932,9.1727041 8.4926966,9.8316464 8.280942,10.168932 8.1224276,10.544313 8.0015054,10.994845 7.9091638,11.338892 7.9060441,11.371741 7.9060441,12 c 0,0.628259 0.00312,0.661108 0.095461,1.005155 0.1206627,0.449565 0.279373,0.825811 0.4895935,1.160654 0.6951423,1.107233 1.8096994,1.80104 3.1223034,1.943619 0.259849,0.02823 0.915033,-0.01086 1.218426,-0.07269 z m 3.848404,-7.420932 c 0.215584,-0.104659 0.35253,-0.2404848 0.457547,-0.4538058 0.08409,-0.1708041 0.09933,-0.2361301 0.09933,-0.4255818 0,-0.3863196 -0.198022,-0.7136782 -0.530466,-0.8769322 -0.150459,-0.073887 -0.21351,-0.086291 -0.438606,-0.086291 -0.21567,0 -0.290232,0.013459 -0.415141,0.074935 -0.185336,0.091217 -0.363067,0.2638402 -0.454895,0.4418226 -0.101759,0.1972311 -0.115838,0.5716067 -0.03005,0.798991 0.102914,0.2727675 0.373787,0.5120319 0.668125,0.5901609 0.151039,0.040091 0.502277,0.00558 0.64415,-0.063299 z"
     id="path2902" />
</svg>
