<?xml version="1.0" encoding="UTF-8" standalone="no"?>
<svg
   width="24"
   height="24"
   viewBox="0 0 24 24"
   version="1.1"
   id="svg2912"
   sodipodi:docname="iconmonstr-twitch-3.svg"
   inkscape:version="1.2.1 (9c6d41e410, 2022-07-14)"
   xmlns:inkscape="http://www.inkscape.org/namespaces/inkscape"
   xmlns:sodipodi="http://sodipodi.sourceforge.net/DTD/sodipodi-0.dtd"
   xmlns="http://www.w3.org/2000/svg"
   xmlns:svg="http://www.w3.org/2000/svg">
  <defs
     id="defs2916" />
  <sodipodi:namedview
     id="namedview2914"
     pagecolor="#ffffff"
     bordercolor="#000000"
     borderopacity="0.25"
     inkscape:showpageshadow="2"
     inkscape:pageopacity="0.0"
     inkscape:pagecheckerboard="0"
     inkscape:deskcolor="#d1d1d1"
     showgrid="false"
     inkscape:zoom="32.333333"
     inkscape:cx="12"
     inkscape:cy="11.92268"
     inkscape:window-width="1920"
     inkscape:window-height="974"
     inkscape:window-x="-11"
     inkscape:window-y="-11"
     inkscape:window-maximized="1"
     inkscape:current-layer="svg2912" />
  <path
     d="M9.97 18.492l2.03-2.03h3.821l2.388-2.388v-7.641h-11.463v10.03h3.224v2.029zm4.418-9.313h1.433v4.175h-1.433v-4.175zm-3.821 0h1.433v4.175h-1.433v-4.175zm8.433-9.179h-14c-2.761 0-5 2.239-5 5v14c0 2.761 2.239 5 5 5h14c2.762 0 5-2.239 5-5v-14c0-2.761-2.238-5-5-5zm.642 14.791l-4.179 4.179h-3.104l-2.031 2.03h-2.149v-2.03h-3.821v-11.224l1.075-2.746h14.209v9.791z"
     id="path2910" />
  <path
     style="fill:#bf9300;stroke-width:0.0309278"
     d="M 4.5773196,23.965185 C 4.5347938,23.959174 4.381701,23.938382 4.2371134,23.91898 2.4766634,23.682747 0.85823975,22.318258 0.27552674,20.578975 0.14035973,20.175529 0.06505899,19.774411 0.03108532,19.276864 -0.00751466,18.711565 -0.00909723,5.3258521 0.02936569,4.7319588 0.06084775,4.2458545 0.13948026,3.827096 0.27552674,3.4210246 0.78497029,1.9004372 2.078414,0.65792218 3.610813,0.21706322 c 0.6824697,-0.196341 0.034776,-0.1810422 8.188156,-0.1934079 7.554212,-0.01145697 7.690422,-0.0097547 8.235945,0.10292617 1.672645,0.34549421 3.139591,1.65289901 3.68662,3.28567141 0.138065,0.4120939 0.213193,0.8102047 0.247381,1.3108831 0.04047,0.5926664 0.04047,13.961062 0,14.553728 -0.03397,0.497547 -0.109275,0.898665 -0.244442,1.302111 -0.409256,1.221549 -1.34291,2.294784 -2.492514,2.865147 -0.589427,0.292437 -1.069103,0.435629 -1.702284,0.508163 -0.255337,0.02925 -14.7482045,0.04175 -14.9523554,0.0129 z m 6.7886594,-3.97034 1.020268,-1.020618 h 1.546482 1.546483 l 2.095446,-2.095276 2.095445,-2.095275 V 9.8892606 4.9948454 H 12.544526 5.4189489 l -0.077335,0.1932989 c -0.042534,0.1063145 -0.287571,0.7304329 -0.544526,1.38693 l -0.467191,1.1936314 v 5.6027603 5.602761 h 1.9175258 1.9175258 v 1.020618 1.020619 h 1.0903818 1.0903817 z"
     id="path2918" />
  <path
     style="fill:#bf9300;stroke-width:0.0309278"
     d="M 9.9896907,17.435389 V 16.438144 H 8.3814433 6.7731959 V 11.443299 6.4484536 h 5.7061851 5.706186 v 3.8120064 3.812006 l -1.183138,1.182839 -1.183139,1.182839 h -1.917201 -1.917201 l -0.997599,0.997245 -0.9975983,0.997244 z M 12,11.273196 V 9.1701031 h -0.726804 -0.726804 v 2.1030929 2.103093 H 11.273196 12 Z m 3.835052,0 V 9.1701031 h -0.726805 -0.726804 v 2.1030929 2.103093 h 0.726804 0.726805 z"
     id="path2920" />
</svg>
