<?xml version="1.0" encoding="UTF-8" standalone="no"?>
<svg
   width="24"
   height="24"
   viewBox="0 0 24 24"
   version="1.1"
   id="svg4"
   sodipodi:docname="iconmonstr-copyright-2.svg"
   inkscape:version="1.2.1 (9c6d41e410, 2022-07-14)"
   xmlns:inkscape="http://www.inkscape.org/namespaces/inkscape"
   xmlns:sodipodi="http://sodipodi.sourceforge.net/DTD/sodipodi-0.dtd"
   xmlns="http://www.w3.org/2000/svg"
   xmlns:svg="http://www.w3.org/2000/svg">
  <defs
     id="defs8" />
  <sodipodi:namedview
     id="namedview6"
     pagecolor="#ffffff"
     bordercolor="#000000"
     borderopacity="0.25"
     inkscape:showpageshadow="2"
     inkscape:pageopacity="0.0"
     inkscape:pagecheckerboard="0"
     inkscape:deskcolor="#d1d1d1"
     showgrid="false"
     inkscape:zoom="32.333333"
     inkscape:cx="5.242268"
     inkscape:cy="11.92268"
     inkscape:window-width="1920"
     inkscape:window-height="974"
     inkscape:window-x="-11"
     inkscape:window-y="-11"
     inkscape:window-maximized="1"
     inkscape:current-layer="svg4" />
  <path
     d="M12 2c5.514 0 10 4.486 10 10s-4.486 10-10 10-10-4.486-10-10 4.486-10 10-10zm0-2c-6.627 0-12 5.373-12 12s5.373 12 12 12 12-5.373 12-12-5.373-12-12-12zm0 15.781c-2.084 0-3.781-1.696-3.781-3.781s1.696-3.781 3.781-3.781c1.172 0 2.306.523 3.136 1.669l1.857-1.218c-1.281-1.826-3.133-2.67-4.993-2.67-3.308 0-6 2.692-6 6s2.691 6 6 6c1.881 0 3.724-.859 4.994-2.67l-1.857-1.218c-.828 1.14-1.959 1.669-3.137 1.669z"
     id="path2" />
  <path
     style="fill:#bf9300;stroke-width:0.0309278;fill-opacity:1"
     d="m 11.273196,23.966199 c -0.06804,-0.0067 -0.283763,-0.02728 -0.479382,-0.0457 C 10.320283,23.875904 9.6398276,23.759882 9.1610555,23.642104 5.1998811,22.667652 1.9898021,19.737955 0.67142941,15.893999 0.17188297,14.437481 -0.024487,13.067439 0.03572073,11.458763 0.17500218,7.7373343 2.156553,4.1928489 5.2731959,2.0902652 6.9203586,0.97903822 8.6551862,0.33539035 10.670103,0.08792919 c 0.628086,-0.07713806 2.031708,-0.07713806 2.659794,0 1.516971,0.1863062 2.799595,0.57431178 4.113402,1.24434201 2.767323,1.4113111 4.88014,3.8430854 5.885272,6.7737294 0.499707,1.4569871 0.696372,2.8297174 0.635416,4.4352364 -0.129648,3.41485 -1.797447,6.680361 -4.512823,8.835998 -1.768871,1.404242 -3.818587,2.254223 -6.105803,2.531966 -0.378368,0.04595 -1.790511,0.08479 -2.072165,0.057 z m 1.771498,-2.008479 c 2.275698,-0.237084 4.387761,-1.242152 6.008357,-2.859195 1.6319,-1.628323 2.589694,-3.588421 2.89438,-5.923267 0.06448,-0.494142 0.07344,-1.767088 0.01567,-2.226804 C 21.865193,10.169375 21.736315,9.562072 21.538889,8.9494778 21.039403,7.3996172 20.216128,6.0586503 19.053816,4.9017436 17.392292,3.2479444 15.242088,2.2412059 12.912371,2.0262821 c -0.437053,-0.04032 -1.387689,-0.04032 -1.824742,0 C 7.0918738,2.3949032 3.6939275,5.1186622 2.4649364,8.9381443 2.1314028,9.9747065 1.998064,10.849173 1.998064,12 c 0,0.774408 0.045261,1.281341 0.171206,1.917526 0.64101,3.237939 2.7936906,5.921599 5.8255754,7.26251 0.868726,0.384212 1.9426289,0.669375 2.9229366,0.776154 0.537875,0.05859 1.572099,0.05933 2.126912,0.0015 z"
     id="path237" />
  <path
     style="fill:#bf9300;fill-opacity:1;stroke-width:0.0309278"
     d="M 11.352187,17.949038 C 10.486799,17.858666 9.4989473,17.50197 8.7416156,17.006406 7.3031099,16.065113 6.3244115,14.53623 6.0787239,12.846546 c -0.063617,-0.43752 -0.062428,-1.260398 0.00247,-1.7069 C 6.3662025,9.1786853 7.6284924,7.4731744 9.4374919,6.6048664 11.99798,5.3758486 15.022461,6.1212224 16.77864,8.4140695 c 0.152439,0.1990232 0.172778,0.2402328 0.135883,0.2753219 -0.02386,0.022696 -0.431919,0.2953602 -0.90679,0.6059202 L 15.144332,9.8599664 15.04985,9.7392615 C 14.024879,8.4298229 12.386622,7.8996656 10.857723,8.3826446 9.9060356,8.6832826 9.0910636,9.3648155 8.6388126,10.238242 8.3434301,10.808711 8.2156756,11.340625 8.2156756,12 c 0,0.850382 0.2409088,1.590283 0.7345729,2.256088 1.1021005,1.486403 3.1180685,1.963598 4.7558775,1.125755 0.488701,-0.250002 0.987832,-0.666438 1.343712,-1.12109 l 0.09447,-0.12069 0.863413,0.564302 c 0.474876,0.310367 0.883195,0.583282 0.907374,0.606479 0.03772,0.03619 0.01861,0.07528 -0.13457,0.275265 -1.30038,1.697761 -3.331506,2.581901 -5.428339,2.362929 z"
     id="path2506" />
</svg>
