<?xml version="1.0" encoding="UTF-8" standalone="no"?>
<svg
   viewBox="0 0 200 200"
   version="1.1"
   id="svg4"
   sodipodi:docname="blob-1.svg"
   inkscape:version="1.2 (dc2aedaf03, 2022-05-15)"
   xmlns:inkscape="http://www.inkscape.org/namespaces/inkscape"
   xmlns:sodipodi="http://sodipodi.sourceforge.net/DTD/sodipodi-0.dtd"
   xmlns="http://www.w3.org/2000/svg"
   xmlns:svg="http://www.w3.org/2000/svg">
  <defs
     id="defs8" />
  <sodipodi:namedview
     id="namedview6"
     pagecolor="#ffffff"
     bordercolor="#666666"
     borderopacity="1.0"
     inkscape:showpageshadow="2"
     inkscape:pageopacity="0.0"
     inkscape:pagecheckerboard="0"
     inkscape:deskcolor="#d1d1d1"
     showgrid="false"
     inkscape:zoom="3.88"
     inkscape:cx="42.654639"
     inkscape:cy="100"
     inkscape:window-width="1920"
     inkscape:window-height="974"
     inkscape:window-x="-11"
     inkscape:window-y="-11"
     inkscape:window-maximized="1"
     inkscape:current-layer="svg4" />
  <path
     fill="#0F62FE"
     d="M7.5,-19.2C9.5,-8.9,10.8,-6.4,23,-0.1C35.3,6.3,58.5,16.4,61.1,23.4C63.8,30.5,45.8,34.4,32.2,37.7C18.5,41.1,9.3,43.9,-5.1,51C-19.5,58.1,-39.1,69.4,-44.9,63.5C-50.8,57.6,-43,34.5,-41.5,18.4C-40,2.3,-44.8,-6.9,-46.4,-19.1C-48,-31.3,-46.4,-46.5,-38.1,-54.7C-29.9,-62.9,-14.9,-64.1,-6.1,-55.7C2.8,-47.3,5.5,-29.4,7.5,-19.2Z"
     transform="translate(100 100)"
     id="path2"
     style="fill:#8c74b3;fill-opacity:1" />
</svg>
