<?xml version="1.0" encoding="UTF-8" standalone="no"?>
<svg
   viewBox="0 0 200 200"
   version="1.1"
   id="svg2044"
   sodipodi:docname="1.svg"
   inkscape:version="1.2 (dc2aedaf03, 2022-05-15)"
   xmlns:inkscape="http://www.inkscape.org/namespaces/inkscape"
   xmlns:sodipodi="http://sodipodi.sourceforge.net/DTD/sodipodi-0.dtd"
   xmlns="http://www.w3.org/2000/svg"
   xmlns:svg="http://www.w3.org/2000/svg">
  <defs
     id="defs2048" />
  <sodipodi:namedview
     id="namedview2046"
     pagecolor="#ffffff"
     bordercolor="#666666"
     borderopacity="1.0"
     inkscape:showpageshadow="2"
     inkscape:pageopacity="0.0"
     inkscape:pagecheckerboard="0"
     inkscape:deskcolor="#d1d1d1"
     showgrid="false"
     inkscape:zoom="3.88"
     inkscape:cx="100.12887"
     inkscape:cy="100"
     inkscape:window-width="1920"
     inkscape:window-height="974"
     inkscape:window-x="-11"
     inkscape:window-y="-11"
     inkscape:window-maximized="1"
     inkscape:current-layer="svg2044" />
  <path
     fill="#8A3FFC"
     d="M50.9,-73.6C63.3,-61,68.7,-42.6,73.8,-24.6C78.8,-6.6,83.4,11,79.1,26.2C74.8,41.4,61.8,54.2,47.1,63.3C32.4,72.4,16.2,77.9,-0.9,79.2C-18.1,80.4,-36.1,77.5,-51.2,68.5C-66.3,59.5,-78.5,44.5,-83.7,27.4C-89,10.3,-87.4,-8.8,-79.7,-23.9C-72,-38.9,-58.2,-50,-43.9,-61.9C-29.6,-73.8,-14.8,-86.5,2.2,-89.6C19.3,-92.7,38.5,-86.1,50.9,-73.6Z"
     transform="translate(100 100)"
     id="path2042"
     style="fill:#8c74b3;fill-opacity:1" />
</svg>
