<?xml version="1.0" encoding="UTF-8" standalone="no"?>
<svg
   viewBox="0 0 200 200"
   version="1.1"
   id="svg11922"
   sodipodi:docname="2.svg"
   inkscape:version="1.2 (dc2aedaf03, 2022-05-15)"
   xmlns:inkscape="http://www.inkscape.org/namespaces/inkscape"
   xmlns:sodipodi="http://sodipodi.sourceforge.net/DTD/sodipodi-0.dtd"
   xmlns="http://www.w3.org/2000/svg"
   xmlns:svg="http://www.w3.org/2000/svg">
  <defs
     id="defs11926" />
  <sodipodi:namedview
     id="namedview11924"
     pagecolor="#ffffff"
     bordercolor="#666666"
     borderopacity="1.0"
     inkscape:showpageshadow="2"
     inkscape:pageopacity="0.0"
     inkscape:pagecheckerboard="0"
     inkscape:deskcolor="#d1d1d1"
     showgrid="false"
     inkscape:zoom="3.88"
     inkscape:cx="100.12887"
     inkscape:cy="100"
     inkscape:window-width="1920"
     inkscape:window-height="974"
     inkscape:window-x="-11"
     inkscape:window-y="-11"
     inkscape:window-maximized="1"
     inkscape:current-layer="svg11922" />
  <path
     fill="#FF0066"
     d="M33.3,-49.7C47.9,-42.5,67.8,-41.3,74.6,-32.3C81.3,-23.4,75,-6.8,67.5,6.1C60,18.9,51.4,28,44.3,41.3C37.3,54.7,31.9,72.5,20.5,81C9,89.5,-8.4,88.9,-20.4,80.4C-32.4,72,-39,55.7,-49.9,43.2C-60.8,30.7,-76.1,21.9,-83.5,8.5C-91,-5,-90.6,-23.1,-81.5,-34.7C-72.3,-46.4,-54.4,-51.6,-39.4,-58.6C-24.3,-65.6,-12.2,-74.5,-1.4,-72.3C9.4,-70.2,18.7,-56.9,33.3,-49.7Z"
     transform="translate(100 100)"
     id="path11920"
     style="fill:#8c74b3;fill-opacity:1" />
</svg>
