<?xml version="1.0" encoding="UTF-8" standalone="no"?>
<svg
   viewBox="0 0 200 200"
   version="1.1"
   id="svg2847"
   sodipodi:docname="2.svg"
   inkscape:version="1.2 (dc2aedaf03, 2022-05-15)"
   xmlns:inkscape="http://www.inkscape.org/namespaces/inkscape"
   xmlns:sodipodi="http://sodipodi.sourceforge.net/DTD/sodipodi-0.dtd"
   xmlns="http://www.w3.org/2000/svg"
   xmlns:svg="http://www.w3.org/2000/svg">
  <defs
     id="defs2851" />
  <sodipodi:namedview
     id="namedview2849"
     pagecolor="#ffffff"
     bordercolor="#666666"
     borderopacity="1.0"
     inkscape:showpageshadow="2"
     inkscape:pageopacity="0.0"
     inkscape:pagecheckerboard="0"
     inkscape:deskcolor="#d1d1d1"
     showgrid="false"
     inkscape:zoom="3.88"
     inkscape:cx="100.12887"
     inkscape:cy="100"
     inkscape:window-width="1920"
     inkscape:window-height="974"
     inkscape:window-x="-11"
     inkscape:window-y="-11"
     inkscape:window-maximized="1"
     inkscape:current-layer="svg2847" />
  <path
     fill="#FF0066"
     d="M29.9,-52.6C37.7,-41.6,42,-31.4,46.3,-21.4C50.6,-11.3,54.8,-1.4,57.8,11.4C60.8,24.2,62.5,39.9,57.2,53.9C51.9,67.8,39.5,80,26.1,79.7C12.8,79.5,-1.5,66.7,-16.5,60.4C-31.5,54.1,-47.1,54.2,-59.9,47.5C-72.6,40.7,-82.5,27,-87.1,11C-91.6,-4.9,-91,-23.1,-81.2,-34.1C-71.5,-45.1,-52.7,-48.9,-37.7,-56.6C-22.6,-64.3,-11.3,-75.7,-0.1,-75.6C11.1,-75.4,22.2,-63.6,29.9,-52.6Z"
     transform="translate(100 100)"
     id="path2845"
     style="fill:#8c74b3;fill-opacity:1" />
</svg>
