<?xml version="1.0" encoding="UTF-8" standalone="no"?>
<svg
   viewBox="0 0 200 200"
   version="1.1"
   id="svg1363"
   sodipodi:docname="blob-2.svg"
   inkscape:version="1.2 (dc2aedaf03, 2022-05-15)"
   xmlns:inkscape="http://www.inkscape.org/namespaces/inkscape"
   xmlns:sodipodi="http://sodipodi.sourceforge.net/DTD/sodipodi-0.dtd"
   xmlns="http://www.w3.org/2000/svg"
   xmlns:svg="http://www.w3.org/2000/svg">
  <defs
     id="defs1367" />
  <sodipodi:namedview
     id="namedview1365"
     pagecolor="#ffffff"
     bordercolor="#666666"
     borderopacity="1.0"
     inkscape:showpageshadow="2"
     inkscape:pageopacity="0.0"
     inkscape:pagecheckerboard="0"
     inkscape:deskcolor="#d1d1d1"
     showgrid="false"
     inkscape:zoom="3.88"
     inkscape:cx="42.654639"
     inkscape:cy="100"
     inkscape:window-width="1920"
     inkscape:window-height="974"
     inkscape:window-x="-11"
     inkscape:window-y="-11"
     inkscape:window-maximized="1"
     inkscape:current-layer="svg1363" />
  <path
     fill="#0F62FE"
     d="M44.8,-60.8C50.7,-57.3,43.2,-34.5,40.6,-18.8C38,-3.1,40.2,5.3,42.2,18.2C44.2,31.1,46,48.4,38.9,59C31.8,69.5,15.9,73.3,5.3,66C-5.3,58.8,-10.7,40.4,-23,31.5C-35.4,22.7,-54.8,23.4,-62,16.5C-69.3,9.6,-64.4,-4.9,-61.2,-21.4C-57.9,-38,-56.3,-56.7,-46.4,-58.8C-36.5,-61,-18.2,-46.6,0.6,-47.4C19.4,-48.2,38.8,-64.2,44.8,-60.8Z"
     transform="translate(100 100)"
     id="path1361"
     style="fill:#8c74b3;fill-opacity:1" />
</svg>
