<?xml version="1.0" encoding="UTF-8" standalone="no"?>
<svg
   width="148"
   height="25"
   version="1.1"
   id="svg35"
   sodipodi:docname="logo-bookmark-white.svg"
   inkscape:version="1.1 (c68e22c387, 2021-05-23)"
   xmlns:inkscape="http://www.inkscape.org/namespaces/inkscape"
   xmlns:sodipodi="http://sodipodi.sourceforge.net/DTD/sodipodi-0.dtd"
   xmlns="http://www.w3.org/2000/svg"
   xmlns:svg="http://www.w3.org/2000/svg">
  <defs
     id="defs39" />
  <sodipodi:namedview
     id="namedview37"
     pagecolor="#ffffff"
     bordercolor="#666666"
     borderopacity="1.0"
     inkscape:pageshadow="2"
     inkscape:pageopacity="0.0"
     inkscape:pagecheckerboard="0"
     showgrid="false"
     inkscape:zoom="11.533784"
     inkscape:cx="74"
     inkscape:cy="12.094903"
     inkscape:window-width="1920"
     inkscape:window-height="974"
     inkscape:window-x="-11"
     inkscape:window-y="-11"
     inkscape:window-maximized="1"
     inkscape:current-layer="svg35" />
  <g
     fill="none"
     fill-rule="evenodd"
     id="g33">
    <path
       d="M37 6.299h5.227c.746 0 1.434.155 2.062.466.629.311 1.123.735 1.484 1.27s.542 1.12.542 1.754c0 .672-.165 1.254-.495 1.746-.33.491-.762.868-1.297 1.129v.15c.697.248 1.25.643 1.661 1.185.41.541.616 1.191.616 1.95 0 .735-.196 1.385-.588 1.951a3.817 3.817 0 0 1-1.587 1.307c-.665.305-1.403.457-2.212.457H37V6.299zm5.04 5.45c.548 0 .986-.152 1.316-.457.33-.305.495-.688.495-1.148 0-.448-.159-.824-.476-1.13-.318-.304-.738-.457-1.26-.457H39.52v3.192h2.52zm.28 5.619c.61 0 1.086-.159 1.428-.476.342-.317.513-.731.513-1.241 0-.51-.174-.927-.522-1.251-.349-.324-.847-.485-1.494-.485H39.52v3.453h2.8zm12.927 2.595c-1.307 0-2.492-.308-3.556-.924a6.711 6.711 0 0 1-2.511-2.53c-.61-1.07-.915-2.246-.915-3.528 0-1.281.305-2.457.915-3.528a6.711 6.711 0 0 1 2.51-2.529C52.756 6.308 53.94 6 55.248 6c1.306 0 2.492.308 3.556.924a6.711 6.711 0 0 1 2.51 2.53c.61 1.07.915 2.246.915 3.527 0 1.282-.305 2.458-.915 3.528a6.711 6.711 0 0 1-2.51 2.53c-1.064.616-2.25.924-3.556.924zm0-2.39a4.52 4.52 0 0 0 2.258-.578 4.177 4.177 0 0 0 1.615-1.624c.392-.697.588-1.494.588-2.39 0-.896-.196-1.692-.588-2.389a4.177 4.177 0 0 0-1.615-1.624 4.52 4.52 0 0 0-2.258-.579 4.47 4.47 0 0 0-2.25.579 4.195 4.195 0 0 0-1.605 1.624c-.392.697-.588 1.493-.588 2.39 0 .895.196 1.692.588 2.389a4.195 4.195 0 0 0 1.605 1.624 4.47 4.47 0 0 0 2.25.578zm15.353 2.39c-1.307 0-2.492-.308-3.556-.924a6.711 6.711 0 0 1-2.51-2.53c-.61-1.07-.915-2.246-.915-3.528 0-1.281.305-2.457.914-3.528a6.711 6.711 0 0 1 2.511-2.529C68.108 6.308 69.294 6 70.6 6c1.307 0 2.492.308 3.556.924a6.711 6.711 0 0 1 2.51 2.53c.61 1.07.915 2.246.915 3.527 0 1.282-.305 2.458-.914 3.528a6.711 6.711 0 0 1-2.511 2.53c-1.064.616-2.25.924-3.556.924zm0-2.39a4.52 4.52 0 0 0 2.259-.578 4.177 4.177 0 0 0 1.614-1.624c.392-.697.588-1.494.588-2.39 0-.896-.196-1.692-.588-2.389a4.177 4.177 0 0 0-1.614-1.624 4.52 4.52 0 0 0-2.259-.579 4.47 4.47 0 0 0-2.25.579 4.195 4.195 0 0 0-1.605 1.624c-.392.697-.588 1.493-.588 2.39 0 .895.196 1.692.588 2.389a4.195 4.195 0 0 0 1.606 1.624 4.47 4.47 0 0 0 2.249.578zM79.83 6.3h2.52v5.73h.15l4.89-5.73h3.043v.149L85.6 11.973l5.338 7.542v.149h-3.08l-3.994-5.693-1.512 1.773v3.92h-2.52V6.299zM93.779 6h3.248l3.546 9.39h.15L104.268 6h3.267v13.365h-2.501v-6.589l.15-2.221h-.15l-3.398 8.81h-1.96l-3.416-8.81h-.149l.15 2.221v6.59h-2.483V6zm20.8 0h2.894l5.021 13.365h-2.781l-1.12-3.192h-5.115l-1.12 3.192h-2.781L114.579 6zm3.193 7.859l-1.176-3.36-.486-1.606h-.149l-.485 1.606-1.195 3.36h3.49zM124.553 6h4.872c.871 0 1.646.18 2.324.541.678.361 1.204.862 1.577 1.503.374.64.56 1.366.56 2.175 0 .858-.27 1.62-.812 2.286a4.617 4.617 0 0 1-2.044 1.447l-.018.13 3.584 5.134v.15h-2.894l-3.453-5.022h-1.176v5.021h-2.52V6zm4.853 6.03c.573 0 1.04-.175 1.4-.523.361-.349.542-.79.542-1.326 0-.51-.172-.945-.514-1.306-.342-.361-.806-.542-1.39-.542h-2.371v3.696h2.333zm7.23-6.03h2.52v5.73h.15l4.89-5.73h3.043v.15l-4.835 5.525 5.34 7.541v.15h-3.08l-3.996-5.694-1.512 1.773v3.92h-2.52V6z"
       fill="#242A45"
       fill-rule="nonzero"
       id="path25" />
    <g
       id="g31">
      <circle
         fill="#5267DF"
         cx="12.5"
         cy="12.5"
         r="12.5"
         id="circle27" />
      <path
         d="M9 9v10l3.54-3.44L16.078 19V9a2 2 0 0 0-2-2H11a2 2 0 0 0-2 2z"
         fill="#FFF"
         id="path29" />
    </g>
  </g>
  <path
     style="fill:#a0a0a0;stroke:none;stroke-width:0.0867018"
     d="M 37.065026,13.011844 V 6.3725835 h 2.929646 c 2.352368,0 3.030191,0.026189 3.439907,0.132906 1.110968,0.2893706 2.039056,1.0078832 2.493058,1.9300903 0.261093,0.5303557 0.284426,0.6454968 0.284366,1.4032532 -5.2e-5,0.662882 -0.03696,0.905346 -0.187353,1.230879 -0.215908,0.467338 -0.785245,1.115783 -1.210325,1.378496 -0.161118,0.09958 -0.292942,0.228616 -0.292942,0.286754 0,0.05814 0.179271,0.192801 0.39838,0.299253 0.61501,0.298794 1.276973,0.977778 1.559026,1.599112 0.210331,0.463336 0.245229,0.650838 0.247225,1.328291 0.0022,0.738771 -0.01826,0.830447 -0.322215,1.445459 -0.492403,0.996311 -1.259184,1.618681 -2.489329,2.020503 -0.414645,0.135442 -0.892568,0.160184 -3.663152,0.189645 l -3.186292,0.03388 z m 6.077865,4.271907 c 0.759251,-0.257523 1.118386,-0.782256 1.118386,-1.634073 0,-0.668796 -0.226412,-1.131626 -0.710382,-1.452159 l -0.36015,-0.238527 -1.849034,-0.02784 -1.849034,-0.02784 v 1.740205 1.740204 h 1.677748 c 1.038664,0 1.790011,-0.03808 1.972466,-0.09996 z m -0.117092,-5.719562 c 0.56314,-0.272612 0.84532,-0.746654 0.84532,-1.420077 0,-0.6734221 -0.28218,-1.1474643 -0.84532,-1.4200756 C 42.681363,8.5572978 42.49871,8.5401289 41.069287,8.5401289 h -1.57661 v 1.6039831 1.603984 h 1.57661 c 1.429423,0 1.612076,-0.01717 1.956512,-0.183907 z"
     id="path158" />
  <path
     style="fill:#a0a0a0;stroke:none;stroke-width:0.0867018"
     d="m 53.891697,19.803799 c -2.506787,-0.491822 -4.505495,-2.304745 -5.296727,-4.804385 -0.292215,-0.923159 -0.337612,-2.61063 -0.09729,-3.616269 0.541488,-2.2658365 2.046153,-4.0158359 4.177993,-4.8592105 0.873421,-0.3455329 1.507809,-0.4498784 2.683432,-0.4413768 0.909503,0.00658 1.209246,0.045274 1.864089,0.240652 2.371859,0.7076658 4.095708,2.4808879 4.73624,4.8718883 0.247174,0.922664 0.265426,2.495528 0.03962,3.414158 -0.648264,2.637259 -2.674815,4.61795 -5.270738,5.151465 -0.715236,0.146996 -2.192606,0.169432 -2.836621,0.04308 z m 2.697788,-2.389555 c 0.758674,-0.225093 1.293018,-0.543641 1.851612,-1.103835 0.982442,-0.985254 1.456033,-2.448927 1.267076,-3.916001 C 59.390768,9.930057 57.65029,8.3641851 55.232516,8.3677543 53.9576,8.3696364 52.944597,8.776362 52.087002,9.6306935 c -1.75835,1.7516595 -1.767122,4.9045925 -0.01866,6.7062655 1.092482,1.125727 2.903458,1.557242 4.521142,1.077285 z"
     id="path197" />
  <path
     style="fill:#a0a0a0;stroke:none;stroke-width:0.0867018"
     d="m 69.144698,19.77431 c -1.630381,-0.362372 -3.113582,-1.278421 -4.028453,-2.488037 -0.490214,-0.648146 -1.025009,-1.725209 -1.221598,-2.460262 -0.191433,-0.715781 -0.25987,-2.299268 -0.131284,-3.037664 0.235311,-1.351257 0.840108,-2.5760384 1.754986,-3.5540466 0.910069,-0.9728664 1.984173,-1.6200647 3.257955,-1.9630722 0.903198,-0.2432156 2.653061,-0.2619402 3.533011,-0.037805 2.44558,0.622922 4.293397,2.4536602 4.997299,4.9511108 0.155782,0.552718 0.195317,0.913766 0.194626,1.777387 -0.0011,1.336877 -0.14958,1.976961 -0.738004,3.180822 -0.913802,1.869557 -2.631826,3.19525 -4.688696,3.617978 -0.781114,0.160535 -2.238297,0.167293 -2.929842,0.01359 z m 2.791008,-2.358665 c 2.253522,-0.661753 3.525106,-2.886649 3.075235,-5.380748 -0.401589,-2.2264236 -2.146958,-3.6705163 -4.432203,-3.6671427 -2.487633,0.00367 -4.29618,1.7509127 -4.441263,4.2907107 -0.142055,2.486803 1.345919,4.485905 3.643717,4.895355 0.565559,0.100777 1.557402,0.03717 2.154514,-0.138175 z"
     id="path236" />
  <path
     style="fill:#ffffff;stroke:none;stroke-width:0.0867018;fill-opacity:1"
     d="M 79.895723,13.005272 V 6.3725835 h 1.213826 1.213825 v 2.8611599 c 0,2.2336486 0.02377,2.8601226 0.108378,2.8564316 0.05961,-0.0026 1.20082,-1.290054 2.536028,-2.8610073 l 2.427651,-2.8562789 1.509044,-1.526e-4 c 1.428688,-1.446e-4 1.502153,0.00793 1.37964,0.1515755 -0.193428,0.226797 -4.408574,5.0657573 -4.591087,5.2705383 -0.154926,0.173827 -0.112324,0.240743 2.528123,3.971046 1.477136,2.086831 2.685703,3.811749 2.685703,3.833152 0,0.0214 -0.676166,0.03891 -1.502591,0.03891 H 87.901671 L 85.927146,16.81968 c -1.085989,-1.550055 -2.002109,-2.835329 -2.035822,-2.856165 -0.03371,-0.02084 -0.399766,0.359781 -0.813453,0.845815 l -0.752157,0.883699 -0.0012,1.972466 -0.0012,1.972466 h -1.213825 -1.213826 z"
     id="path275" />
  <path
     style="fill:#ffffff;fill-opacity:1;stroke-width:0.0867018"
     d="m 53.581722,19.682722 c -2.25641,-0.610186 -3.97267,-2.158983 -4.80206,-4.333503 -0.281655,-0.73845 -0.300999,-0.857924 -0.337749,-2.085983 -0.04195,-1.401836 0.03207,-1.881566 0.449913,-2.91605 0.886361,-2.1944096 2.934581,-3.8154127 5.247011,-4.1525919 3.074873,-0.4483521 5.922059,1.0004335 7.250517,3.6894129 0.564369,1.142359 0.68357,1.684549 0.686216,3.121265 0.0019,1.03449 -0.02774,1.309447 -0.200648,1.861034 -0.773561,2.467711 -2.511181,4.157727 -4.904022,4.769671 -0.823373,0.210569 -2.688258,0.23629 -3.389178,0.04674 z m 2.777918,-2.17083 c 1.994416,-0.509176 3.273492,-2.0943 3.399533,-4.21295 0.135793,-2.282566 -1.130888,-4.191927 -3.180299,-4.7938945 -0.295932,-0.086923 -0.800487,-0.1383223 -1.357829,-0.1383223 -1.420742,0 -2.312392,0.3671528 -3.217018,1.3246647 -0.864221,0.9147431 -1.240114,1.9033271 -1.240114,3.2614481 0,1.328713 0.364296,2.375999 1.12738,3.241019 1.055126,1.196075 2.86034,1.728562 4.468347,1.318035 z"
     id="path5967" />
  <path
     style="fill:#ffffff;fill-opacity:1;stroke-width:0.0867018"
     d="m 68.818935,19.636943 c -0.346071,-0.09068 -0.972581,-0.342213 -1.392245,-0.558961 -1.446068,-0.746865 -2.319651,-1.656872 -3.04735,-3.174408 -0.45494,-0.948728 -0.606788,-1.696429 -0.608649,-2.99698 -0.0022,-1.556406 0.366426,-2.723918 1.255554,-3.9763069 1.298611,-1.8291685 3.309837,-2.8178091 5.732366,-2.8178091 3.133331,0 5.916361,2.3128801 6.591593,5.478045 0.187016,0.876645 0.116641,2.488333 -0.145066,3.322189 -0.766646,2.44271 -2.64574,4.231287 -4.999641,4.758806 -0.883106,0.197908 -2.564848,0.180738 -3.386562,-0.03458 z m 3.310048,-2.246807 c 1.855508,-0.652987 3.001302,-2.311684 2.996635,-4.338053 -0.0052,-2.268104 -1.268282,-4.035539 -3.253415,-4.5526006 -0.58131,-0.151412 -1.88888,-0.1718997 -2.467399,-0.038661 -1.959541,0.451303 -3.297229,2.2781276 -3.293388,4.4976396 0.0039,2.270836 1.24067,3.972581 3.311232,4.556233 0.638414,0.179957 2.021979,0.116278 2.706335,-0.124558 z"
     id="path6006" />
  <path
     style="fill:#ffffff;fill-opacity:1;stroke-width:0.0867018"
     d="M 37.065026,12.988686 V 6.3452815 l 3.049543,0.061127 c 2.735482,0.054831 3.103324,0.079244 3.571771,0.2370526 1.04965,0.3536016 1.826196,1.0425266 2.271499,2.0151963 0.203792,0.4451403 0.224054,0.5792113 0.195633,1.2944698 -0.04037,1.0160778 -0.179566,1.3111568 -0.997613,2.1148788 -0.348962,0.342851 -0.634476,0.659186 -0.634476,0.702966 0,0.04378 0.231442,0.222455 0.514315,0.397055 1.065582,0.657714 1.57318,1.488195 1.6349,2.674856 0.03762,0.723288 0.02602,0.784859 -0.262182,1.391733 -0.498428,1.049548 -1.139868,1.628056 -2.270981,2.048171 -0.589265,0.218864 -0.993114,0.245732 -4.623082,0.307575 l -2.449327,0.04173 z m 6.393666,4.173132 c 0.622437,-0.310173 0.833763,-0.749847 0.788759,-1.641053 -0.03554,-0.703847 -0.150279,-0.930488 -0.685398,-1.353891 l -0.297847,-0.235666 -1.885764,-0.03328 -1.885765,-0.03328 v 1.759537 1.759537 h 1.760364 c 1.714805,0 1.771888,-0.0057 2.205651,-0.221896 z m -0.472127,-5.53086 C 43.917437,11.242015 44.217543,9.8571095 43.538536,9.0837638 43.100865,8.5852835 42.898272,8.5401289 41.099446,8.5401289 h -1.606769 v 1.6039831 1.603984 h 1.606769 c 1.153366,0 1.685878,-0.03305 1.887119,-0.117138 z"
     id="path6045" />
  <path
     style="fill:#ffffff;fill-opacity:1;stroke-width:0.0867018"
     d="M 93.854716,12.656509 V 6.0218645 l 1.572889,0.023631 1.57289,0.023631 1.752045,4.6385465 c 1.174964,3.110724 1.79585,4.647138 1.88505,4.664629 0.0925,0.01813 0.19675,-0.140414 0.34216,-0.520211 0.11503,-0.300461 0.90966,-2.408894 1.76584,-4.685407 l 1.55669,-4.1391134 1.58231,-8.975e-4 1.58231,-8.975e-4 v 6.6326884 6.632689 h -1.22418 -1.22418 l 0.0553,-3.879906 c 0.0304,-2.133949 0.0777,-4.104247 0.10508,-4.378442 0.1135,-1.1355438 -0.17472,-0.539938 -1.87751,3.879776 l -1.68683,4.378312 -0.95745,1.3e-4 -0.957452,1.3e-4 -1.686955,-4.349648 c -0.927826,-2.392306 -1.726697,-4.362847 -1.775269,-4.378979 -0.05947,-0.01975 -0.07743,1.401129 -0.05498,4.349648 l 0.03333,4.378979 h -1.180518 -1.180517 z"
     id="path6084" />
  <path
     style="fill:#ffffff;fill-opacity:1;stroke-width:0.0867018"
     d="m 112.13824,12.660607 2.48041,-6.6348308 h 1.40189 1.40189 l 0.27407,0.71529 c 0.65577,1.7114854 4.68311,12.4664618 4.68311,12.5061928 0,0.02414 -0.59499,0.04382 -1.3222,0.04373 l -1.3222,-1.73e-4 -0.29472,-0.84518 c -0.16209,-0.464849 -0.40984,-1.167627 -0.55054,-1.561729 l -0.25582,-0.716549 -2.60971,0.02294 -2.6097,0.02294 -0.53377,1.517281 -0.53378,1.517282 -1.34467,0.02382 -1.34467,0.02382 z m 5.64515,1.190008 c -5.6e-4,-0.03576 -0.36967,-1.157469 -0.82025,-2.492677 -0.50285,-1.4901087 -0.86593,-2.437545 -0.94016,-2.4532704 -0.0819,-0.017357 -0.16997,0.1504126 -0.27297,0.5202109 -0.11571,0.4154455 -1.2351,3.6907135 -1.49776,4.3823855 -0.0321,0.08453 0.35202,0.108377 1.7455,0.108377 0.98267,0 1.78621,-0.02926 1.78564,-0.06503 z"
     id="path6123" />
  <path
     style="fill:#ffffff;fill-opacity:1;stroke-width:0.0867018"
     d="M 124.63386,12.652239 V 6.0133248 l 2.88284,0.032057 c 2.69497,0.029968 2.9204,0.044551 3.45939,0.2237842 1.19762,0.3982515 2.15149,1.2880785 2.5994,2.4248786 0.15958,0.4050244 0.19647,0.6725947 0.20049,1.4542624 0.005,0.936653 -0.002,0.972532 -0.32043,1.616526 -0.39039,0.790253 -1.06176,1.454661 -1.91658,1.896699 -0.31638,0.163603 -0.57538,0.32949 -0.57556,0.368638 -1.7e-4,0.03915 0.79951,1.217078 1.77707,2.617623 0.97756,1.400545 1.77739,2.568251 1.77739,2.594903 0,0.02665 -0.63401,0.04784 -1.40891,0.04709 l -1.4089,-0.0014 -1.72,-2.512988 -1.72,-2.512989 h -0.59928 -0.59927 v 2.514352 2.514353 h -1.21382 -1.21383 z m 5.45126,-0.692166 c 1.35071,-0.401119 1.75793,-2.1089748 0.7448,-3.1236385 C 130.3612,8.3670068 129.97617,8.2800234 128.367,8.2800234 h -1.30549 v 1.9074396 1.90744 h 1.28479 c 0.90983,0 1.4173,-0.03935 1.73882,-0.13483 z"
     id="path6162" />
  <path
     style="fill:#ffffff;fill-opacity:1;stroke-width:0.0867018"
     d="M 136.68541,12.658465 V 6.0257762 h 1.21383 1.21382 v 2.8611599 c 0,2.4198859 0.0191,2.8611599 0.12368,2.8611599 0.068,0 1.22245,-1.287522 2.56539,-2.8611599 l 2.44171,-2.8611599 h 1.47347 c 0.88183,0 1.46187,0.032709 1.44457,0.081462 -0.0159,0.044804 -1.07433,1.2752079 -2.35209,2.7342309 -1.27776,1.4590229 -2.3448,2.7090839 -2.37122,2.7779129 -0.0289,0.0753 0.98469,1.584904 2.54474,3.790081 1.42602,2.015715 2.62217,3.713706 2.65811,3.773314 0.0513,0.08506 -0.26094,0.108377 -1.45139,0.108377 h -1.51675 l -1.96058,-2.796133 c -1.07832,-1.537874 -1.99282,-2.807498 -2.0322,-2.821387 -0.0394,-0.01389 -0.40818,0.373507 -0.81953,0.86088 l -0.74791,0.886132 v 1.935254 1.935254 h -1.21382 -1.21383 z"
     id="path6201" />
</svg>
