<?xml version="1.0" encoding="UTF-8" standalone="no"?>
<svg
   width="148"
   height="25"
   version="1.1"
   id="svg12"
   sodipodi:docname="logo-bookmark-top.svg"
   inkscape:version="1.1 (c68e22c387, 2021-05-23)"
   xmlns:inkscape="http://www.inkscape.org/namespaces/inkscape"
   xmlns:sodipodi="http://sodipodi.sourceforge.net/DTD/sodipodi-0.dtd"
   xmlns="http://www.w3.org/2000/svg"
   xmlns:svg="http://www.w3.org/2000/svg">
  <defs
     id="defs16" />
  <sodipodi:namedview
     id="namedview14"
     pagecolor="#ffffff"
     bordercolor="#666666"
     borderopacity="1.0"
     inkscape:pageshadow="2"
     inkscape:pageopacity="0.0"
     inkscape:pagecheckerboard="0"
     showgrid="false"
     inkscape:zoom="9.8040541"
     inkscape:cx="74"
     inkscape:cy="12.086837"
     inkscape:window-width="1920"
     inkscape:window-height="974"
     inkscape:window-x="-11"
     inkscape:window-y="-11"
     inkscape:window-maximized="1"
     inkscape:current-layer="svg12" />
  <g
     fill="none"
     fill-rule="evenodd"
     id="g10">
    <path
       d="M37 6.299h5.227c.746 0 1.434.155 2.062.466.629.311 1.123.735 1.484 1.27s.542 1.12.542 1.754c0 .672-.165 1.254-.495 1.746-.33.491-.762.868-1.297 1.129v.15c.697.248 1.25.643 1.661 1.185.41.541.616 1.191.616 1.95 0 .735-.196 1.385-.588 1.951a3.817 3.817 0 0 1-1.587 1.307c-.665.305-1.403.457-2.212.457H37V6.299zm5.04 5.45c.548 0 .986-.152 1.316-.457.33-.305.495-.688.495-1.148 0-.448-.159-.824-.476-1.13-.318-.304-.738-.457-1.26-.457H39.52v3.192h2.52zm.28 5.619c.61 0 1.086-.159 1.428-.476.342-.317.513-.731.513-1.241 0-.51-.174-.927-.522-1.251-.349-.324-.847-.485-1.494-.485H39.52v3.453h2.8zm12.927 2.595c-1.307 0-2.492-.308-3.556-.924a6.711 6.711 0 0 1-2.511-2.53c-.61-1.07-.915-2.246-.915-3.528 0-1.281.305-2.457.915-3.528a6.711 6.711 0 0 1 2.51-2.529C52.756 6.308 53.94 6 55.248 6c1.306 0 2.492.308 3.556.924a6.711 6.711 0 0 1 2.51 2.53c.61 1.07.915 2.246.915 3.527 0 1.282-.305 2.458-.915 3.528a6.711 6.711 0 0 1-2.51 2.53c-1.064.616-2.25.924-3.556.924zm0-2.39a4.52 4.52 0 0 0 2.258-.578 4.177 4.177 0 0 0 1.615-1.624c.392-.697.588-1.494.588-2.39 0-.896-.196-1.692-.588-2.389a4.177 4.177 0 0 0-1.615-1.624 4.52 4.52 0 0 0-2.258-.579 4.47 4.47 0 0 0-2.25.579 4.195 4.195 0 0 0-1.605 1.624c-.392.697-.588 1.493-.588 2.39 0 .895.196 1.692.588 2.389a4.195 4.195 0 0 0 1.605 1.624 4.47 4.47 0 0 0 2.25.578zm15.353 2.39c-1.307 0-2.492-.308-3.556-.924a6.711 6.711 0 0 1-2.51-2.53c-.61-1.07-.915-2.246-.915-3.528 0-1.281.305-2.457.914-3.528a6.711 6.711 0 0 1 2.511-2.529C68.108 6.308 69.294 6 70.6 6c1.307 0 2.492.308 3.556.924a6.711 6.711 0 0 1 2.51 2.53c.61 1.07.915 2.246.915 3.527 0 1.282-.305 2.458-.914 3.528a6.711 6.711 0 0 1-2.511 2.53c-1.064.616-2.25.924-3.556.924zm0-2.39a4.52 4.52 0 0 0 2.259-.578 4.177 4.177 0 0 0 1.614-1.624c.392-.697.588-1.494.588-2.39 0-.896-.196-1.692-.588-2.389a4.177 4.177 0 0 0-1.614-1.624 4.52 4.52 0 0 0-2.259-.579 4.47 4.47 0 0 0-2.25.579 4.195 4.195 0 0 0-1.605 1.624c-.392.697-.588 1.493-.588 2.39 0 .895.196 1.692.588 2.389a4.195 4.195 0 0 0 1.606 1.624 4.47 4.47 0 0 0 2.249.578zM79.83 6.3h2.52v5.73h.15l4.89-5.73h3.043v.149L85.6 11.973l5.338 7.542v.149h-3.08l-3.994-5.693-1.512 1.773v3.92h-2.52V6.299zM93.779 6h3.248l3.546 9.39h.15L104.268 6h3.267v13.365h-2.501v-6.589l.15-2.221h-.15l-3.398 8.81h-1.96l-3.416-8.81h-.149l.15 2.221v6.59h-2.483V6zm20.8 0h2.894l5.021 13.365h-2.781l-1.12-3.192h-5.115l-1.12 3.192h-2.781L114.579 6zm3.193 7.859l-1.176-3.36-.486-1.606h-.149l-.485 1.606-1.195 3.36h3.49zM124.553 6h4.872c.871 0 1.646.18 2.324.541.678.361 1.204.862 1.577 1.503.374.64.56 1.366.56 2.175 0 .858-.27 1.62-.812 2.286a4.617 4.617 0 0 1-2.044 1.447l-.018.13 3.584 5.134v.15h-2.894l-3.453-5.022h-1.176v5.021h-2.52V6zm4.853 6.03c.573 0 1.04-.175 1.4-.523.361-.349.542-.79.542-1.326 0-.51-.172-.945-.514-1.306-.342-.361-.806-.542-1.39-.542h-2.371v3.696h2.333zm7.23-6.03h2.52v5.73h.15l4.89-5.73h3.043v.15l-4.835 5.525 5.34 7.541v.15h-3.08l-3.996-5.694-1.512 1.773v3.92h-2.52V6z"
       fill="#242A45"
       fill-rule="nonzero"
       id="path2" />
    <g
       id="g8">
      <circle
         fill="#5267DF"
         cx="12.5"
         cy="12.5"
         r="12.5"
         id="circle4" />
      <path
         d="M9 9v10l3.54-3.44L16.078 19V9a2 2 0 0 0-2-2H11a2 2 0 0 0-2 2z"
         fill="#FFF"
         id="path6" />
    </g>
  </g>
  <path
     style="fill:#ffffff;fill-opacity:1;stroke-width:0.101999"
     d="M 37.0255,12.998265 V 6.3617958 l 3.187457,0.032059 3.187457,0.032059 0.662991,0.3152117 c 1.172903,0.5576439 1.817546,1.2892079 2.096901,2.3796409 0.175416,0.6847134 0.09507,1.4507166 -0.217233,2.0710446 -0.212158,0.421409 -0.824332,1.07052 -1.191178,1.263048 -0.404958,0.212531 -0.348426,0.367557 0.235048,0.644572 0.6623,0.314439 1.358534,1.088362 1.580616,1.756989 0.248785,0.749022 0.165859,1.905688 -0.186026,2.594706 -0.358042,0.701075 -1.252732,1.501808 -1.983543,1.77524 -0.969792,0.362846 -1.469153,0.40837 -4.479451,0.40837 H 37.0255 Z m 6.495284,4.128125 c 0.158193,-0.117357 0.394869,-0.369803 0.525945,-0.560993 0.204367,-0.298091 0.232983,-0.44522 0.200856,-1.032688 -0.03239,-0.592234 -0.07851,-0.728704 -0.340319,-1.007049 -0.521367,-0.554285 -0.842413,-0.634848 -2.725323,-0.683889 l -1.708476,-0.0445 v 1.803054 1.803053 l 1.879846,-0.03181 c 1.719647,-0.0291 1.904358,-0.04999 2.167471,-0.245183 z m -0.513415,-5.556783 c 0.580032,-0.280789 0.852038,-0.73435 0.852038,-1.420744 0,-0.6911543 -0.292145,-1.1811415 -0.857251,-1.4377848 C 42.654259,8.5530804 42.324387,8.5209906 41.028946,8.519125 l -1.555479,-0.00224 v 1.631978 1.631978 h 1.548775 c 1.357996,0 1.602525,-0.02602 1.985127,-0.211234 z"
     id="path2233" />
  <path
     style="fill:#ffffff;fill-opacity:1;stroke-width:0.101999"
     d="m 54.212267,19.844924 c -1.578713,-0.257089 -2.7559,-0.860557 -3.879051,-1.988538 -1.356811,-1.362647 -1.980267,-2.906047 -1.984098,-4.911745 -0.0062,-3.2579835 2.225265,-6.0583666 5.356083,-6.7215583 4.436313,-0.939731 8.443543,2.2552383 8.441907,6.7307423 -4.08e-4,1.164393 -0.182638,1.994326 -0.671546,3.058718 -0.804493,1.751445 -2.513149,3.175534 -4.399641,3.666902 -0.734831,0.191399 -2.188614,0.275407 -2.863654,0.165479 z m 2.933331,-2.630384 c 1.430607,-0.672106 2.312451,-1.878261 2.546308,-3.482751 C 60.001454,11.607977 59.032384,9.6315851 57.279218,8.8111797 54.916995,7.7057621 52.257167,8.629812 51.18087,10.929804 c -0.275377,0.588469 -0.324915,0.824253 -0.365663,1.740458 -0.05749,1.292715 0.131386,2.103531 0.692108,2.971078 0.877952,1.358362 2.136196,1.974943 3.928936,1.925305 0.90005,-0.02492 1.101045,-0.06632 1.709347,-0.352105 z"
     id="path2272" />
  <path
     style="fill:#ffffff;fill-opacity:1;stroke-width:0.101999"
     d="m 69.485081,19.83027 c -3.506409,-0.53767 -6.062213,-3.75196 -5.790062,-7.281832 0.08775,-1.138141 0.213426,-1.5968 0.739462,-2.6986873 0.866018,-1.8140495 2.600425,-3.1823762 4.587722,-3.6193943 3.194325,-0.7024508 6.411015,0.8119407 7.781591,3.6635099 0.551301,1.1470167 0.756002,2.1735087 0.689702,3.4585757 -0.153681,2.97873 -2.040164,5.394777 -4.894493,6.268452 -0.818406,0.250504 -2.227725,0.345265 -3.113922,0.209376 z m 2.831942,-2.524279 c 1.223272,-0.479217 2.177331,-1.521327 2.566856,-2.803755 0.176036,-0.579557 0.204813,-0.887648 0.167501,-1.793235 -0.03949,-0.958506 -0.08451,-1.177765 -0.364766,-1.776664 -1.101016,-2.3528163 -3.805457,-3.2491456 -6.213129,-2.0592092 -1.828798,0.9038411 -2.748642,3.1094212 -2.224307,5.3333912 0.204294,0.866514 0.483876,1.382076 1.106468,2.040375 0.519296,0.549079 1.165406,0.949559 1.952417,1.21017 0.62627,0.207383 2.309701,0.122862 3.00896,-0.151073 z"
     id="path2311" />
  <path
     style="fill:#ffffff;fill-opacity:1;stroke-width:0.101999"
     d="M 79.864921,13.004824 V 6.3749139 h 1.223983 1.223984 v 2.8559614 c 0,2.2200997 0.02839,2.8545717 0.127498,2.8497177 0.07012,-0.0034 1.21753,-1.288616 2.549791,-2.8559611 l 2.422293,-2.849718 h 1.491643 c 1.387171,0 1.481839,0.012062 1.351656,0.172219 -0.07699,0.09472 -1.162925,1.3424294 -2.413184,2.7726866 -1.250258,1.4302575 -2.251099,2.6580535 -2.224091,2.7284365 0.02701,0.07038 1.22207,1.784235 2.655692,3.808561 1.433622,2.024326 2.606586,3.703718 2.606586,3.731982 0,0.02826 -0.675152,0.03869 -1.500339,0.02316 l -1.500338,-0.02823 -1.971689,-2.804962 c -1.084429,-1.542729 -2.00428,-2.813442 -2.044114,-2.823807 -0.03983,-0.01037 -0.405195,0.376629 -0.811914,0.859986 l -0.73949,0.878832 v 1.970475 1.970476 h -1.223984 -1.223983 z"
     id="path2350" />
  <path
     style="fill:#ffffff;fill-opacity:1;stroke-width:0.101999"
     d="m 93.838732,12.698828 v -6.62991 h 1.57037 1.570369 l 0.403145,1.0454859 c 0.22173,0.5750172 1.018268,2.6854997 1.770085,4.6899611 0.751817,2.004462 1.419849,3.645364 1.484519,3.646451 0.13231,0.0022 0.0607,0.18116 2.13197,-5.326407 l 1.5244,-4.0533988 1.60648,-0.00105 1.60648,-0.00105 v 6.6299098 6.629911 h -1.2369 -1.23689 l 0.0547,-4.156444 c 0.0301,-2.286044 0.0872,-4.259717 0.12681,-4.385941 0.0532,-0.169522 0.0312,-0.229497 -0.0842,-0.229497 -0.10524,0 -0.30793,0.391655 -0.62025,1.198484 -0.25516,0.659166 -1.01311,2.621365 -1.68432,4.360441 l -1.2204,3.161957 h -0.94986 -0.949868 l -1.683827,-4.358303 c -0.926105,-2.397067 -1.729726,-4.35927 -1.785825,-4.360451 -0.067,-0.0014 -0.08958,1.502797 -0.06582,4.383803 l 0.03618,4.385951 H 95.0224 93.838732 Z"
     id="path2389" />
  <path
     style="fill:#ffffff;fill-opacity:1;stroke-width:0.101999"
     d="m 109.90716,18.643201 c 0.14107,-0.380294 1.25514,-3.353608 2.47569,-6.607364 l 2.21919,-5.9159197 1.42469,-0.025667 1.42468,-0.025667 2.44797,6.5311807 c 1.34638,3.59215 2.46327,6.575684 2.48197,6.630078 0.0208,0.06053 -0.47943,0.0989 -1.28939,0.0989 h -1.32339 l -0.3853,-1.096485 c -0.21191,-0.603067 -0.46396,-1.303033 -0.5601,-1.555479 l -0.17481,-0.458994 h -2.62506 -2.62507 l -0.53493,1.529979 -0.53492,1.529979 -1.33886,0.02845 -1.33887,0.02845 z m 7.90087,-4.796888 c -2.2e-4,-0.04208 -0.26858,-0.834132 -0.59638,-1.760129 -0.32779,-0.925996 -0.7015,-2.039056 -0.83046,-2.4734661 -0.12896,-0.4344104 -0.28744,-0.7898371 -0.35218,-0.7898371 -0.0647,0 -0.22164,0.3557202 -0.34868,0.7904893 -0.12703,0.4347689 -0.50342,1.5539689 -0.83642,2.4871109 -0.333,0.933141 -0.60545,1.724906 -0.60545,1.759476 0,0.03457 0.80324,0.06286 1.78497,0.06286 0.98174,0 1.78481,-0.03443 1.7846,-0.0765 z"
     id="path2428" />
  <path
     style="fill:#ffffff;fill-opacity:1;stroke-width:0.101999"
     d="m 124.64232,12.698828 v -6.62991 h 2.79587 c 2.45201,0 2.87181,0.023634 3.4133,0.192165 0.85343,0.2656157 1.43794,0.6303079 1.98442,1.2381288 0.68029,0.7566448 0.92638,1.4567877 0.93129,2.6496512 0.003,0.846396 -0.0311,1.043948 -0.27361,1.561493 -0.34201,0.729955 -1.16257,1.549709 -1.94602,1.944121 -0.31974,0.160961 -0.58134,0.334316 -0.58134,0.385233 0,0.05092 0.80324,1.237596 1.78498,2.637065 0.98173,1.399469 1.78497,2.568671 1.78497,2.598227 0,0.02955 -0.63111,0.05209 -1.40248,0.05007 l -1.40248,-0.0037 -1.6921,-2.469801 -1.69211,-2.4698 -0.67936,-0.03016 -0.67937,-0.03016 v 2.503626 2.503627 h -1.17298 -1.17298 z m 5.78314,-0.842753 c 0.17943,-0.09736 0.45482,-0.345616 0.612,-0.551681 0.25145,-0.329677 0.28577,-0.46224 0.28577,-1.104065 0,-0.6096224 -0.0419,-0.7912378 -0.255,-1.1059387 -0.44418,-0.6558841 -0.85924,-0.7815026 -2.58217,-0.7815026 h -1.49778 v 1.8961283 1.896129 l 1.55548,-0.03603 c 1.23343,-0.02857 1.62302,-0.07268 1.8817,-0.213044 z"
     id="path2467" />
  <path
     style="fill:#5267df;fill-opacity:1;stroke-width:0.101999"
     d="m 136.67815,12.698828 v -6.62991 h 1.22399 1.22398 v 2.8559614 c 0,2.2200506 0.0284,2.8545916 0.1275,2.8498096 0.0701,-0.0034 1.20613,-1.285224 2.52446,-2.8485346 l 2.39697,-2.8423823 1.52029,-0.00743 c 1.43947,-0.00703 1.51202,0.00206 1.36477,0.1710705 -0.0855,0.098174 -1.17128,1.3401408 -2.41278,2.759927 -1.24149,1.4197864 -2.25725,2.6217584 -2.25725,2.6710484 0,0.04929 1.11661,1.664559 2.48137,3.589487 1.36476,1.924928 2.56342,3.626092 2.6637,3.780365 l 0.18232,0.280496 -1.51621,-0.0042 -1.51622,-0.0042 -1.98807,-2.851761 c -1.09344,-1.568468 -2.01143,-2.848976 -2.03997,-2.845574 -0.0286,0.0034 -0.38467,0.401872 -0.79139,0.885486 l -0.73949,0.8793 v 1.970475 1.970476 h -1.22398 -1.22399 z"
     id="path2506" />
  <path
     style="fill:#5267df;fill-opacity:1;stroke-width:0.101999"
     d="M 9.100675,13.597837 9.128877,8.3487841 9.409487,7.9248564 c 0.5051505,-0.76315 0.78064,-0.8359522 3.16331,-0.8359522 h 2.075066 l 0.464264,0.2944276 c 0.308608,0.1957136 0.537587,0.4458931 0.68296,0.7461938 0.214706,0.4435226 0.218697,0.5453418 0.218697,5.5799024 v 5.128136 l -1.698398,-1.641387 c -0.934118,-0.902763 -1.73419,-1.641387 -1.777937,-1.641387 -0.04375,0 -0.841262,0.740722 -1.772257,1.646049 l -1.6927186,1.64605 z"
     id="path3518" />
  <path
     style="fill:#ffffff;fill-opacity:1;stroke-width:0.101999"
     d="M 10.454859,24.776729 C 8.5803989,24.446792 6.6138262,23.608126 5.1308143,22.50623 4.0365741,21.693197 2.6152272,20.152402 1.914231,19.019329 0.03877057,15.987879 -0.43913612,12.056026 0.65897668,8.6920487 1.980468,4.6437705 5.3055569,1.5256761 9.4627136,0.43636497 10.573285,0.14535876 10.78655,0.12261474 12.443832,0.11843819 c 2.385735,-0.006012 3.781603,0.31809543 5.751286,1.33539721 5.096359,2.632166 7.774176,8.5359763 6.372699,14.0499546 -1.421127,5.591295 -6.431464,9.470066 -12.174984,9.42531 -0.617092,-0.0048 -1.48918,-0.07337 -1.937974,-0.152371 z m 0.634916,-7.736387 1.450905,-1.426772 1.762051,1.730086 1.762052,1.730086 0.02644,-5.247937 0.02644,-5.247938 -0.230434,-0.4587754 C 15.760484,7.8667652 15.480539,7.5202737 15.265123,7.3491105 l -0.391667,-0.3112056 -2.0563,-0.03187 c -1.130966,-0.017529 -2.208213,-0.00346 -2.393882,0.031263 -0.412131,0.077075 -1.1231048,0.6984037 -1.30999,1.1448153 -0.109206,0.26086 -0.1374053,1.41085 -0.1374053,5.6035078 v 5.275288 l 0.3314955,-0.296897 c 0.1823226,-0.163293 0.9844028,-0.938945 1.7824008,-1.72367 z"
     id="path3557" />
  <path
     style="fill:#ffffff;fill-opacity:1;stroke-width:0.101999"
     d="m 136.67815,12.698828 v -6.62991 h 1.22399 1.22398 v 2.8634403 c 0,2.4528287 0.0213,2.8587117 0.14838,2.8304617 0.16046,-0.03566 1.19256,-1.195136 3.45681,-3.8834265 l 1.43899,-1.7084769 h 1.41088 c 1.10227,0 1.39382,0.027888 1.33293,0.1274983 -0.0429,0.070124 -0.83768,0.9995865 -1.76625,2.0654721 -2.50832,2.879249 -2.75778,3.178567 -2.75778,3.308902 0,0.148514 0.32126,0.622258 3.03682,4.478162 1.19887,1.702321 2.16079,3.114102 2.1376,3.137292 -0.0232,0.02319 -0.68672,0.0074 -1.47451,-0.03517 l -1.43235,-0.07733 -1.92636,-2.746161 c -1.05951,-1.510388 -1.97935,-2.763819 -2.04409,-2.785401 -0.0647,-0.02158 -0.44247,0.342101 -0.83939,0.808187 l -0.72166,0.847427 -1e-5,2.014473 -1e-5,2.014473 h -1.22398 -1.22399 z"
     id="path8836" />
</svg>
